# xmcd
#
# Track frame offsets: 
#        150
#        19068
#        43181
#        60300
#        81481
#        85512
#        100476
#        111255
#        128778
#        134180
#        153648
#        173546
#        184899
#        205254
#        222180
#        246789
#        267095
#
# Disc length: 3697 seconds
#
# Revision: 0
# Processed by: cddbd v1.5.2PL0 Copyright (c) Steve Scherf et al.
# Submitted via: ExactAudioCopyFreeDBPlugin 1.0
#
DISCID=f20e6f11
DTITLE=Luca Barbarossa - Attenti a quei 2
DYEAR=2010
DGENRE=Duet
TTITLE0=Aspettavamo il 2000
TTITLE1=Roma spogliata
TTITLE2=Happy hour
TTITLE3=Via delle storie infinite
TTITLE4=B. Brecht
TTITLE5=Amore che vieni amore che vai
TTITLE6=Ma cosa mi dici mai
TTITLE7=Al di là del muro
TTITLE8=On. Casini
TTITLE9=Ali di cartone
TTITLE10=L'odore
TTITLE11=Alberto Angela
TTITLE12=Via Margutta
TTITLE13=La società dei magnaccioni
TTITLE14=Le cose da salvare
TTITLE15=Il raffreddore
TTITLE16=Roma spogliata (reprise)
EXTD=
EXTT0=
EXTT1=
EXTT2=
EXTT3=
EXTT4=
EXTT5=
EXTT6=
EXTT7=
EXTT8=
EXTT9=
EXTT10=
EXTT11=
EXTT12=
EXTT13=
EXTT14=
EXTT15=
EXTT16=
PLAYORDER=
